# xmcd
#
# Track frame offsets:
#	150
#	13976
#	35353
#	51943
#	77369
#
# Disc length: 2265 seconds
#
# Revision: 1
# Processed by: cddbd v1.5.2PL0 Copyright (c) Steve Scherf et al.
# Submitted via: EasyCDDAExtractor 5.1.0
#
DISCID=3308d705
DTITLE=Delta Goodrem - You Will Only Break My Heart
DYEAR=2008
DGENRE=Pop
TTITLE0=You Will Only Break My Heart
TTITLE1=Black Velvet (live From Max Session)
TTITLE2=You Will Only Break My Heart (Diamond Cut Remix)
TTITLE3=You Will Only Break My Heart (Ah, Ah, Ah, Ah, Ah Sing Along Mix)
TTITLE4=Interactive Part
EXTD=
EXTT0=
EXTT1=
EXTT2=
EXTT3=
EXTT4=
PLAYORDER=
